<svg version="1.1" id="Layer_1" xmlns:x="ns_extend;" xmlns:i="ns_ai;" xmlns:graph="ns_graphs;" xmlns="http://www.w3.org/2000/svg" xmlns:xlink="http://www.w3.org/1999/xlink" x="0px" y="0px" viewBox="0 0 268.4 100" style="enable-background:new 0 0 268.4 100;" xml:space="preserve">
 <style type="text/css">
  .st0{fill:#C3002F;}
	.st1{fill:#022169;}
 </style>
 <metadata>
  <sfw xmlns="ns_sfw;">
   <slices>
   </slices>
   <sliceSourceBounds bottomLeftOrigin="true" height="100" width="268.4" x="-48.5" y="6.8">
   </sliceSourceBounds>
  </sfw>
 </metadata>
 <g>
  <g>
   <path class="st0" d="M0,86.1h5.2c0.7,0,1.3,0.1,2,0.2c0.6,0.1,1.2,0.4,1.6,0.7c0.5,0.3,0.8,0.7,1.1,1.3c0.3,0.5,0.4,1.2,0.4,2
			c0,1-0.2,1.8-0.7,2.4c-0.5,0.7-1.2,1.1-2.2,1.3l3.4,5.7H7.3l-2.8-5.4H3v5.4H0L0,86.1L0,86.1z M3,91.7h1.8c0.3,0,0.6,0,0.9,0
			c0.3,0,0.6-0.1,0.8-0.2c0.2-0.1,0.4-0.2,0.6-0.4c0.2-0.2,0.2-0.5,0.2-0.9c0-0.3-0.1-0.6-0.2-0.8c-0.1-0.2-0.3-0.4-0.5-0.5
			c-0.2-0.1-0.5-0.2-0.7-0.2c-0.3,0-0.6-0.1-0.8-0.1H3L3,91.7L3,91.7z">
   </path>
   <path class="st0" d="M12.9,86.1h9.2v2.8h-6.2v2.5h5.9v2.8h-5.9v2.8h6.6v2.8h-9.5V86.1z">
   </path>
   <path class="st0" d="M29.8,86.1h2.5l5.9,13.5h-3.4l-1.2-2.9h-5.3l-1.1,2.9H24L29.8,86.1z M31,90.1l-1.6,4.2h3.3L31,90.1z">
   </path>
   <path class="st0" d="M39.7,86.1h4.5c1.1,0,2.1,0.1,3.1,0.4c1,0.2,1.8,0.6,2.6,1.2c0.7,0.5,1.3,1.2,1.7,2.1
			c0.4,0.9,0.6,1.9,0.6,3.2c0,1.1-0.2,2.1-0.6,2.9c-0.4,0.8-1,1.5-1.7,2.1c-0.7,0.6-1.5,1-2.4,1.3c-0.9,0.3-1.9,0.4-2.9,0.4h-4.9
			L39.7,86.1L39.7,86.1z M42.7,96.9h1.5c0.7,0,1.3-0.1,1.9-0.2c0.6-0.1,1.1-0.4,1.5-0.7c0.4-0.3,0.8-0.8,1-1.3
			c0.2-0.5,0.4-1.2,0.4-1.9c0-0.7-0.1-1.2-0.4-1.7s-0.6-0.9-1-1.2c-0.4-0.3-0.9-0.6-1.5-0.7c-0.6-0.2-1.2-0.2-1.8-0.2h-1.8
			L42.7,96.9L42.7,96.9z">
   </path>
   <path class="st0" d="M56.6,93.9l-5.1-7.8h3.7l2.9,5.1l3-5.1h3.5l-5.1,7.8v5.8h-3L56.6,93.9L56.6,93.9z">
   </path>
   <path class="st0" d="M72.6,86.1h9.1v2.8h-6.1v2.8h5.6v2.8h-5.6v5.3h-3L72.6,86.1L72.6,86.1z">
   </path>
   <path class="st0" d="M83.2,92.9c0-1.1,0.2-2.1,0.5-2.9c0.4-0.9,0.9-1.6,1.5-2.2c0.7-0.6,1.4-1.1,2.3-1.4c0.9-0.3,1.9-0.5,2.9-0.5
			c1.1,0,2,0.2,2.9,0.5c0.9,0.3,1.7,0.8,2.3,1.4c0.6,0.6,1.2,1.4,1.5,2.2c0.4,0.9,0.5,1.9,0.5,2.9c0,1.1-0.2,2.1-0.5,2.9
			c-0.4,0.9-0.9,1.6-1.5,2.2c-0.7,0.6-1.4,1.1-2.3,1.4c-0.9,0.3-1.9,0.5-2.9,0.5c-1.1,0-2-0.2-2.9-0.5c-0.9-0.3-1.7-0.8-2.3-1.4
			c-0.6-0.6-1.2-1.4-1.5-2.2C83.4,95,83.2,94,83.2,92.9z M86.3,92.9c0,0.6,0.1,1.2,0.3,1.7c0.2,0.5,0.5,1,0.9,1.4
			c0.4,0.4,0.8,0.7,1.3,0.9c0.5,0.2,1.1,0.3,1.7,0.3c0.6,0,1.2-0.1,1.7-0.3c0.5-0.2,1-0.5,1.3-0.9s0.7-0.8,0.9-1.4
			c0.2-0.5,0.3-1.1,0.3-1.7c0-0.6-0.1-1.2-0.3-1.7c-0.2-0.5-0.5-1-0.9-1.4c-0.4-0.4-0.8-0.7-1.3-0.9c-0.5-0.2-1.1-0.3-1.7-0.3
			c-0.6,0-1.2,0.1-1.7,0.3c-0.5,0.2-1,0.5-1.3,0.9c-0.4,0.4-0.7,0.9-0.9,1.4C86.4,91.7,86.3,92.3,86.3,92.9z">
   </path>
   <path class="st0" d="M99.8,86.1h5.2c0.7,0,1.3,0.1,2,0.2c0.6,0.1,1.2,0.4,1.6,0.7c0.5,0.3,0.8,0.7,1.1,1.3c0.3,0.5,0.4,1.2,0.4,2
			c0,1-0.2,1.8-0.7,2.4c-0.5,0.7-1.2,1.1-2.2,1.3l3.4,5.7h-3.6l-2.8-5.4h-1.5v5.4h-3L99.8,86.1L99.8,86.1z M102.8,91.7h1.8
			c0.3,0,0.6,0,0.9,0c0.3,0,0.6-0.1,0.8-0.2c0.2-0.1,0.4-0.2,0.6-0.4c0.2-0.2,0.2-0.5,0.2-0.9c0-0.3-0.1-0.6-0.2-0.8
			c-0.1-0.2-0.3-0.4-0.5-0.5c-0.2-0.1-0.5-0.2-0.7-0.2c-0.3,0-0.6-0.1-0.8-0.1h-2L102.8,91.7L102.8,91.7z">
   </path>
   <path class="st0" d="M121.6,88.8h-3.9v-2.6h10.7v2.6h-3.9v10.9h-3C121.6,99.7,121.6,88.8,121.6,88.8z">
   </path>
   <path class="st0" d="M130.2,86.1h3v5h5.8v-5h3v13.5h-3v-5.8h-5.8v5.8h-3V86.1z">
   </path>
   <path class="st0" d="M144.4,86.1h9.2v2.8h-6.2v2.5h5.9v2.8h-5.9v2.8h6.6v2.8h-9.5L144.4,86.1L144.4,86.1z">
   </path>
   <path class="st0" d="M161.7,86.1h3.3l2.2,8.7h0l2.8-8.7h2.8l2.8,8.9h0l2.3-8.9h3l-4,13.5h-2.7l-3-9.4h0l-3,9.4h-2.6L161.7,86.1z">
   </path>
   <path class="st0" d="M181.2,92.9c0-1.1,0.2-2.1,0.5-2.9c0.4-0.9,0.9-1.6,1.5-2.2c0.6-0.6,1.4-1.1,2.3-1.4c0.9-0.3,1.9-0.5,2.9-0.5
			s2,0.2,2.9,0.5c0.9,0.3,1.7,0.8,2.3,1.4c0.6,0.6,1.2,1.4,1.5,2.2c0.4,0.9,0.5,1.9,0.5,2.9c0,1.1-0.2,2.1-0.5,2.9s-0.9,1.6-1.5,2.2
			c-0.6,0.6-1.4,1.1-2.3,1.4c-0.9,0.3-1.9,0.5-2.9,0.5s-2-0.2-2.9-0.5c-0.9-0.3-1.7-0.8-2.3-1.4c-0.7-0.6-1.2-1.4-1.5-2.2
			C181.3,95,181.2,94,181.2,92.9z M184.3,92.9c0,0.6,0.1,1.2,0.3,1.7c0.2,0.5,0.5,1,0.9,1.4c0.4,0.4,0.8,0.7,1.3,0.9
			c0.5,0.2,1.1,0.3,1.7,0.3s1.2-0.1,1.7-0.3c0.5-0.2,1-0.5,1.3-0.9c0.4-0.4,0.7-0.8,0.9-1.4c0.2-0.5,0.3-1.1,0.3-1.7
			c0-0.6-0.1-1.2-0.3-1.7c-0.2-0.5-0.5-1-0.9-1.4c-0.4-0.4-0.8-0.7-1.3-0.9c-0.5-0.2-1.1-0.3-1.7-0.3c-0.6,0-1.2,0.1-1.7,0.3
			c-0.5,0.2-1,0.5-1.3,0.9c-0.4,0.4-0.7,0.9-0.9,1.4C184.4,91.7,184.3,92.3,184.3,92.9z">
   </path>
   <path class="st0" d="M197.8,86.1h5.2c0.7,0,1.3,0.1,2,0.2c0.6,0.1,1.2,0.4,1.6,0.7c0.5,0.3,0.8,0.7,1.1,1.3c0.3,0.5,0.4,1.2,0.4,2
			c0,1-0.2,1.8-0.7,2.4c-0.5,0.7-1.2,1.1-2.2,1.3l3.4,5.7h-3.6l-2.8-5.4h-1.5v5.4h-3L197.8,86.1L197.8,86.1z M200.8,91.7h1.8
			c0.3,0,0.6,0,0.9,0c0.3,0,0.6-0.1,0.8-0.2c0.2-0.1,0.4-0.2,0.6-0.4c0.2-0.2,0.2-0.5,0.2-0.9c0-0.3-0.1-0.6-0.2-0.8
			c-0.1-0.2-0.3-0.4-0.5-0.5c-0.2-0.1-0.5-0.2-0.7-0.2c-0.3,0-0.6-0.1-0.8-0.1h-1.9L200.8,91.7L200.8,91.7z">
   </path>
   <path class="st0" d="M210.7,86.1h3v5.6l5.3-5.6h3.9l-6,6.3l6.5,7.2h-4.2l-5.5-6.4v6.4h-3L210.7,86.1L210.7,86.1z">
   </path>
   <path class="st0" d="M224.9,86.1h4.5c1.1,0,2.1,0.1,3.1,0.4c1,0.2,1.8,0.6,2.6,1.2c0.7,0.5,1.3,1.2,1.7,2.1
			c0.4,0.9,0.6,1.9,0.6,3.2c0,1.1-0.2,2.1-0.6,2.9c-0.4,0.8-1,1.5-1.7,2.1c-0.7,0.6-1.5,1-2.4,1.3c-0.9,0.3-1.9,0.4-2.9,0.4h-4.9
			L224.9,86.1L224.9,86.1z M227.9,96.9h1.5c0.7,0,1.3-0.1,1.9-0.2c0.6-0.1,1.1-0.4,1.5-0.7c0.4-0.3,0.8-0.8,1-1.3
			c0.2-0.5,0.4-1.2,0.4-1.9c0-0.7-0.1-1.2-0.4-1.7c-0.2-0.5-0.6-0.9-1-1.2c-0.4-0.3-0.9-0.6-1.5-0.7c-0.6-0.2-1.2-0.2-1.8-0.2h-1.8
			L227.9,96.9L227.9,96.9z">
   </path>
   <path class="st0" d="M243.1,86.1h2.5l5.9,13.5H248l-1.2-2.9h-5.3l-1.1,2.9h-3.3L243.1,86.1z M244.2,90.1l-1.6,4.2h3.3L244.2,90.1z
			">
   </path>
   <path class="st0" d="M253.7,93.9l-5.1-7.8h3.7l2.9,5.1l3-5.1h3.5l-5.1,7.8v5.8h-3L253.7,93.9L253.7,93.9z">
   </path>
  </g>
  <g>
   <path class="st1" d="M237.8,68.8c0-3.5,2.8-6,6.1-6c3.3,0,6.1,2.6,6.1,6c0,3.5-2.8,6.1-6.1,6.1C240.6,74.8,237.8,72.3,237.8,68.8
			 M243.9,73.8c2.7,0,4.9-2.1,4.9-5c0-2.9-2.2-5-4.9-5c-2.8,0-4.9,2.2-4.9,5C239,71.7,241.1,73.8,243.9,73.8 M242.6,72.3h-1.1v-7
			h2.6c1.6,0,2.5,0.6,2.5,2c0,1.2-0.8,1.8-1.8,1.9l2,3.1h-1.2l-1.8-3h-1.2L242.6,72.3L242.6,72.3z M243.9,68.4
			c0.9,0,1.7-0.1,1.7-1.1c0-0.9-0.8-1-1.5-1h-1.4v2.2H243.9z">
   </path>
   <path class="st1" d="M56.7,37.9c-4.6-3.2-7.1-4.9-13.2-4.9c-7.4,0-13.4,6.6-13.4,14.7c0,8.1,6,14.7,13.4,14.7
			c5.8,0,7.3-0.6,13.5-4.7v14.6c-4,2-8.7,3.1-13.5,3.1c-15.8,0-28.7-12.4-28.7-27.6C14.8,32.4,27.7,20,43.5,20
			c4.7,0,9.3,1.1,13.2,3.1V37.9z">
   </path>
   <rect x="61.5" y="20.8" class="st1" width="14.4" height="53.4">
   </rect>
   <path class="st1" d="M68.7,18c4.5,0,8.1-3.6,8.1-8.1c0-4.5-3.6-8.1-8.1-8.1c-4.5,0-8.1,3.6-8.1,8.1C60.5,14.3,64.2,18,68.7,18">
   </path>
   <path class="st1" d="M227,41.6c-1.9-0.8-7.2-2.4-8.1-2.7c-6.9-2.8-4.4-8.1,0.7-8.1c3.8,0,6.8,1.6,9.3,3.3V21.3
			c-5-1.5-7.6-2.1-11.8-2.1c-11.2,0-16.9,8.2-17,16.4c0,5.8,4.5,12.2,9.7,14.1c4.6,1.7,5.3,2,8.1,2.9c5.5,1.9,5.5,9.8-2,9.8
			c-2.4,0-8.5-0.7-12.1-8.5L182.6,0l-27.1,71.7V33.1h11.2V20.8h-46.3v31.9L95.9,20.8v0H81.5v53.4h14.4V41.8l25,32.4h14V33.1h6.3
			v41.1h28.7l3.3-10.4h16l-3.8-11.2h-8.6l5.9-17.4l7.9,22.1c5,13.5,14.5,18.2,25.2,18.2c10.6,0,21.4-6.2,21.4-19
			C237.1,47.3,231.8,43.5,227,41.6">
   </path>
  </g>
  <path class="st0" d="M263.1,88.6c0-1.5,1.2-2.6,2.6-2.6c1.4,0,2.6,1.1,2.6,2.6c0,1.5-1.2,2.6-2.6,2.6
		C264.3,91.2,263.1,90.1,263.1,88.6 M265.7,90.8c1.2,0,2.1-0.9,2.1-2.2c0-1.2-0.9-2.2-2.1-2.2c-1.2,0-2.1,0.9-2.1,2.2
		C263.6,89.9,264.5,90.8,265.7,90.8 M265.2,90.1h-0.5v-3h1.1c0.7,0,1.1,0.3,1.1,0.9c0,0.5-0.3,0.8-0.8,0.8l0.9,1.3h-0.5l-0.8-1.3
		h-0.5L265.2,90.1L265.2,90.1z M265.7,88.4c0.4,0,0.7,0,0.7-0.5c0-0.4-0.3-0.4-0.7-0.4h-0.6v0.9H265.7z">
  </path>
 </g>
</svg>