<svg version="1.1" id="Layer_1" xmlns="http://www.w3.org/2000/svg" xmlns:xlink="http://www.w3.org/1999/xlink" x="0px" y="0px" viewBox="-108.1 -41 248.3 112.8" style="enable-background:new -108.1 -41 248.3 112.8;" xml:space="preserve">
 <style type="text/css">
  .st0{fill:#FFFFFF;}
 </style>
 <title>
  Artboard 1
 </title>
 <g>
  <path class="st0" d="M47.9,15.4c-0.1,17.8-14.5,32.2-32.3,32.3H3.2V33.5h12.4c10,0,18.1-8.1,18.1-18.1S25.6-2.7,15.6-2.7l0,0H3.2
		v-14.2h12.4C33.4-16.8,47.9-2.4,47.9,15.4 M-20.9-16.9V9.4h-22.3l-8.2,14.2h44.7v-40.4H-20.9z M140.1,3.3
		c0,24.5-19.9,44.3-44.3,44.3v24.1H57.5V53C46.8,65.1,31.4,72,15.3,71.8h-36.2V47.7h-28.4l-14.2,24.1h-44.7L-42.5-41h58.2
		c16.1,0.1,31.4,6.9,42.2,18.8V-41h38.3C120.5-40.8,140.2-21,140.1,3.3 M15.6,57.6c16.4,0,31.3-9.4,38.3-24.1H72v24.1H82V33.5h14.2
		c16.6,0,30.1-13.4,30.2-30.1c0,0,0,0,0-0.1c-0.2-16.7-13.8-30.2-30.5-30.2H71.7V9.4H57.5c-3.1-20.7-20.9-36.1-41.9-36.2H-34
		l-49.3,84.4h11.7l14.2-24.1h50.7v24.1H15.6z M95.8-16.9H81.6v14.2h14.2c3.3,0,6,2.6,6,6c0,0,0,0,0,0.1c-0.1,3.3-2.7,5.9-6,6H81.6
		v14.2h14.2c11.2,0,20.2-9.1,20.2-20.2v0C115.9-7.8,106.9-16.8,95.8-16.9">
  </path>
  <path class="st0" d="M115.7,64.7c0,3.1-2.5,5.7-5.7,5.7c-3.1,0-5.7-2.5-5.7-5.7c0-3.1,2.5-5.7,5.7-5.7l0,0c3.1,0,5.6,2.4,5.7,5.5
		C115.7,64.6,115.7,64.7,115.7,64.7 M117.1,64.7c0-3.9-3.2-7.1-7.1-7.1s-7.1,3.2-7.1,7.1s3.2,7.1,7.1,7.1S117.1,68.6,117.1,64.7">
  </path>
  <path class="st0" d="M110.4,61.5c0.8,0,1.4,0.6,1.4,1.4c0,0.8-0.6,1.4-1.4,1.4c0,0,0,0,0,0h-1.4v-2.8H110.4z M112.1,61.2
		c-0.5-0.4-1.1-0.7-1.8-0.7h-2.8V69h1.1v-3.2h1.4l1.8,3.2h1.4l-2.1-3.5c0.4,0,0.7-0.4,1.1-0.7c0.3-0.4,0.4-0.9,0.4-1.4
		C112.8,62.6,112.7,61.7,112.1,61.2">
  </path>
 </g>
</svg>